<svg width="127" height="19" viewBox="0 0 127 19" fill="none" xmlns="http://www.w3.org/2000/svg">
<g id="Texto">
<g id="AluraGeek">
<path d="M79.0805 16.5C77.664 17.9167 76.014 18.625 74.1308 18.625C72.9642 18.625 71.8643 18.3917 70.831 17.925C69.8144 17.4584 68.9228 16.8167 68.1562 16C67.4062 15.1834 66.8062 14.225 66.3563 13.125C65.923 12.0084 65.7063 10.8084 65.7063 9.52503C65.7063 8.30837 65.923 7.1667 66.3563 6.10003C66.8062 5.0167 67.4145 4.07503 68.1812 3.27503C68.9644 2.45836 69.8811 1.8167 70.931 1.35003C71.9809 0.866697 73.1225 0.62503 74.3558 0.62503C76.0224 0.62503 77.4473 0.97503 78.6306 1.67503C79.8305 2.37503 80.7305 3.3167 81.3304 4.50003L78.7556 6.40003C78.3056 5.5167 77.6723 4.8417 76.8557 4.37503C76.0557 3.90836 75.1808 3.67503 74.2308 3.67503C73.4809 3.67503 72.7892 3.83336 72.1559 4.15003C71.5393 4.4667 71.006 4.90003 70.556 5.45003C70.1227 6.00003 69.7811 6.63337 69.5311 7.35003C69.2978 8.0667 69.1811 8.82503 69.1811 9.62503C69.1811 10.4584 69.3144 11.2417 69.5811 11.975C69.8477 12.6917 70.2144 13.3167 70.681 13.85C71.1477 14.3834 71.6976 14.8084 72.3309 15.125C72.9809 15.425 73.6809 15.575 74.4308 15.575C76.1474 15.575 77.6973 14.7667 79.0805 13.15V11.9H75.5057V9.37503H81.9304V18.5H79.0805V16.5Z" fill="#464646"/>
<path d="M90.6201 18.75C89.5702 18.75 88.6202 18.575 87.7703 18.225C86.9203 17.8584 86.1954 17.3667 85.5954 16.75C84.9954 16.1334 84.5288 15.4167 84.1955 14.6C83.8788 13.7834 83.7205 12.925 83.7205 12.025C83.7205 11.0917 83.8788 10.2167 84.1955 9.40003C84.5121 8.5667 84.9704 7.8417 85.5704 7.22503C86.1704 6.5917 86.8953 6.0917 87.7453 5.72503C88.6119 5.35836 89.5785 5.17503 90.6451 5.17503C91.7117 5.17503 92.6617 5.35836 93.495 5.72503C94.3449 6.0917 95.0616 6.58337 95.6449 7.20003C96.2448 7.8167 96.6948 8.53337 96.9948 9.35003C97.3114 10.1667 97.4697 11.0167 97.4697 11.9C97.4697 12.1167 97.4614 12.325 97.4447 12.525C97.4447 12.725 97.4281 12.8917 97.3948 13.025H87.2703C87.3203 13.5417 87.4453 14 87.6453 14.4C87.8453 14.8 88.1036 15.1417 88.4203 15.425C88.7369 15.7084 89.0952 15.925 89.4952 16.075C89.8952 16.225 90.3118 16.3 90.7451 16.3C91.4118 16.3 92.0367 16.1417 92.62 15.825C93.22 15.4917 93.6283 15.0584 93.845 14.525L96.7198 15.325C96.2365 16.325 95.4615 17.15 94.3949 17.8C93.345 18.4334 92.0867 18.75 90.6201 18.75ZM94.0199 10.85C93.9366 9.8667 93.57 9.08337 92.92 8.50003C92.2867 7.90003 91.5117 7.60003 90.5951 7.60003C90.1452 7.60003 89.7202 7.68337 89.3202 7.85003C88.9369 8.00003 88.5952 8.2167 88.2953 8.50003C87.9953 8.78337 87.7453 9.12503 87.5453 9.52503C87.362 9.92503 87.2537 10.3667 87.2203 10.85H94.0199Z" fill="#464646"/>
<path d="M105.585 18.75C104.535 18.75 103.585 18.575 102.735 18.225C101.885 17.8584 101.16 17.3667 100.56 16.75C99.9604 16.1334 99.4938 15.4167 99.1605 14.6C98.8438 13.7834 98.6855 12.925 98.6855 12.025C98.6855 11.0917 98.8438 10.2167 99.1605 9.40003C99.4771 8.5667 99.9354 7.8417 100.535 7.22503C101.135 6.5917 101.86 6.0917 102.71 5.72503C103.577 5.35836 104.543 5.17503 105.61 5.17503C106.677 5.17503 107.627 5.35836 108.46 5.72503C109.31 6.0917 110.027 6.58337 110.61 7.20003C111.21 7.8167 111.66 8.53337 111.96 9.35003C112.276 10.1667 112.435 11.0167 112.435 11.9C112.435 12.1167 112.426 12.325 112.41 12.525C112.41 12.725 112.393 12.8917 112.36 13.025H102.235C102.285 13.5417 102.41 14 102.61 14.4C102.81 14.8 103.069 15.1417 103.385 15.425C103.702 15.7084 104.06 15.925 104.46 16.075C104.86 16.225 105.277 16.3 105.71 16.3C106.377 16.3 107.002 16.1417 107.585 15.825C108.185 15.4917 108.593 15.0584 108.81 14.525L111.685 15.325C111.201 16.325 110.427 17.15 109.36 17.8C108.31 18.4334 107.052 18.75 105.585 18.75ZM108.985 10.85C108.902 9.8667 108.535 9.08337 107.885 8.50003C107.252 7.90003 106.477 7.60003 105.56 7.60003C105.11 7.60003 104.685 7.68337 104.285 7.85003C103.902 8.00003 103.56 8.2167 103.26 8.50003C102.96 8.78337 102.71 9.12503 102.51 9.52503C102.327 9.92503 102.219 10.3667 102.185 10.85H108.985Z" fill="#464646"/>
<path d="M123.425 18.5L119.625 12.825L117.825 14.6V18.5H114.475V0.250031H117.825V11.325L123.075 5.42503H126.65L121.775 10.975L127 18.5H123.425Z" fill="#464646"/>
</g>
<g id="AluraGeek_2">
<path d="M7.77169 0.75003H10.8215L17.5711 18.5H14.0213L12.3714 14.075H6.17178L4.54687 18.5H0.99707L7.77169 0.75003ZM11.7465 11.65L9.2966 4.67503L6.74675 11.65H11.7465Z" fill="#2A7AE4"/>
<path d="M19.1679 0.250031H22.5177V14.3C22.5177 14.7834 22.6344 15.1584 22.8677 15.425C23.101 15.6917 23.4343 15.825 23.8677 15.825C24.0676 15.825 24.2843 15.7917 24.5176 15.725C24.7676 15.6584 25.0009 15.575 25.2176 15.475L25.6676 18.025C25.2176 18.2417 24.6926 18.4084 24.0926 18.525C23.4927 18.6417 22.951 18.7 22.4677 18.7C21.4178 18.7 20.6012 18.425 20.0179 17.875C19.4512 17.3084 19.1679 16.5084 19.1679 15.475V0.250031Z" fill="#2A7AE4"/>
<path d="M31.1268 18.75C29.7769 18.75 28.7519 18.3167 28.052 17.45C27.352 16.5834 27.002 15.3 27.002 13.6V5.40003H30.3519V12.875C30.3519 14.8917 31.0768 15.9 32.5267 15.9C33.1767 15.9 33.8017 15.7084 34.4016 15.325C35.0183 14.925 35.5182 14.325 35.9015 13.525V5.40003H39.2514V14.65C39.2514 15 39.3097 15.25 39.4263 15.4C39.5597 15.55 39.768 15.6334 40.0513 15.65V18.5C39.718 18.5667 39.4347 18.6084 39.2014 18.625C38.9847 18.6417 38.7847 18.65 38.6014 18.65C38.0014 18.65 37.5098 18.5167 37.1265 18.25C36.7598 17.9667 36.5432 17.5834 36.4765 17.1L36.4015 16.05C35.8182 16.95 35.0683 17.625 34.1516 18.075C33.235 18.525 32.2268 18.75 31.1268 18.75Z" fill="#2A7AE4"/>
<path d="M50.3798 8.30003C49.3632 8.3167 48.4549 8.5167 47.655 8.90003C46.855 9.2667 46.2801 9.82503 45.9301 10.575V18.5H42.5803V5.40003H45.6551V8.20003C45.8884 7.75003 46.1634 7.35003 46.48 7.00003C46.7967 6.63337 47.1383 6.3167 47.505 6.05003C47.8716 5.78337 48.2383 5.58337 48.6049 5.45003C48.9882 5.30003 49.3549 5.22503 49.7049 5.22503C49.8882 5.22503 50.0215 5.22503 50.1048 5.22503C50.2048 5.22503 50.2965 5.23337 50.3798 5.25003V8.30003Z" fill="#2A7AE4"/>
<path d="M55.6516 18.75C55.0183 18.75 54.4267 18.65 53.8767 18.45C53.3267 18.2334 52.8518 17.9417 52.4518 17.575C52.0518 17.1917 51.7352 16.75 51.5018 16.25C51.2852 15.75 51.1769 15.2 51.1769 14.6C51.1769 13.9834 51.3102 13.4167 51.5768 12.9C51.8601 12.3667 52.2435 11.9167 52.7268 11.55C53.2267 11.1834 53.8184 10.9 54.5017 10.7C55.185 10.4834 55.9349 10.375 56.7515 10.375C57.3348 10.375 57.9015 10.425 58.4514 10.525C59.0181 10.625 59.518 10.7667 59.9514 10.95V10.2C59.9514 9.33337 59.7014 8.6667 59.2014 8.20003C58.7181 7.73336 57.9931 7.50003 57.0265 7.50003C56.3266 7.50003 55.6433 7.62503 54.9766 7.87503C54.31 8.12503 53.6267 8.4917 52.9268 8.97503L51.9018 6.85003C53.585 5.73336 55.4016 5.17503 57.3515 5.17503C59.2347 5.17503 60.693 5.6417 61.7263 6.57503C62.7762 7.4917 63.3012 8.82503 63.3012 10.575V14.65C63.3012 15 63.3595 15.25 63.4762 15.4C63.6095 15.55 63.8178 15.6334 64.1011 15.65V18.5C63.5345 18.6167 63.0429 18.675 62.6262 18.675C61.9929 18.675 61.5013 18.5334 61.1513 18.25C60.818 17.9667 60.6096 17.5917 60.5263 17.125L60.4513 16.4C59.868 17.1667 59.1597 17.75 58.3265 18.15C57.4932 18.55 56.6015 18.75 55.6516 18.75ZM56.6015 16.3C57.1682 16.3 57.7015 16.2 58.2015 16C58.7181 15.8 59.1181 15.5334 59.4014 15.2C59.768 14.9167 59.9514 14.6 59.9514 14.25V12.75C59.5514 12.6 59.1181 12.4834 58.6514 12.4C58.1848 12.3 57.7348 12.25 57.3015 12.25C56.4349 12.25 55.7266 12.45 55.1766 12.85C54.6267 13.2334 54.3517 13.725 54.3517 14.325C54.3517 14.8917 54.5683 15.3667 55.0016 15.75C55.4349 16.1167 55.9683 16.3 56.6015 16.3Z" fill="#2A7AE4"/>
</g>
</g>
</svg>
