<svg width="72" height="12" viewBox="0 0 72 12" fill="none" xmlns="http://www.w3.org/2000/svg">
<g id="Texto">
<g id="AluraGeek">
<path d="M44.7733 9.92004C43.9684 10.7134 43.031 11.11 41.961 11.11C41.2981 11.11 40.6732 10.9794 40.0861 10.718C39.5085 10.4567 39.0019 10.0974 38.5663 9.64004C38.1402 9.18271 37.7993 8.64604 37.5436 8.03004C37.2974 7.40471 37.1743 6.73271 37.1743 6.01404C37.1743 5.33271 37.2974 4.69337 37.5436 4.09604C37.7993 3.48937 38.1449 2.96204 38.5805 2.51404C39.0255 2.0567 39.5463 1.69737 40.1429 1.43604C40.7395 1.16537 41.3881 1.03004 42.0888 1.03004C43.0357 1.03004 43.8453 1.22604 44.5177 1.61804C45.1994 2.01004 45.7108 2.53737 46.0517 3.20004L44.5887 4.26404C44.333 3.76937 43.9732 3.39137 43.5092 3.13004C43.0547 2.86871 42.5575 2.73804 42.0178 2.73804C41.5917 2.73804 41.1987 2.8267 40.8389 3.00404C40.4885 3.18137 40.1855 3.42404 39.9298 3.73204C39.6836 4.04004 39.4895 4.39471 39.3475 4.79604C39.2149 5.19737 39.1486 5.62204 39.1486 6.07004C39.1486 6.53671 39.2244 6.97537 39.3759 7.38604C39.5274 7.78737 39.7357 8.13737 40.0009 8.43604C40.266 8.73471 40.5785 8.97271 40.9383 9.15004C41.3076 9.31804 41.7053 9.40204 42.1314 9.40204C43.1067 9.40204 43.9874 8.94937 44.7733 8.04404V7.34404H42.7422V5.93004H46.3925V11.04H44.7733V9.92004Z" fill="#464646"/>
<path d="M51.3299 11.18C50.7333 11.18 50.1936 11.082 49.7107 10.886C49.2277 10.6807 48.8158 10.4054 48.4749 10.06C48.1341 9.71471 47.8689 9.31337 47.6795 8.85604C47.4996 8.39871 47.4097 7.91804 47.4097 7.41404C47.4097 6.89137 47.4996 6.40137 47.6795 5.94404C47.8595 5.47737 48.1199 5.07137 48.4607 4.72604C48.8016 4.37137 49.2135 4.09137 49.6965 3.88604C50.1889 3.68071 50.7381 3.57804 51.3441 3.57804C51.9501 3.57804 52.4899 3.68071 52.9633 3.88604C53.4463 4.09137 53.8534 4.36671 54.1849 4.71204C54.5257 5.05737 54.7814 5.45871 54.9519 5.91604C55.1318 6.37337 55.2217 6.84937 55.2217 7.34404C55.2217 7.46537 55.217 7.58204 55.2075 7.69404C55.2075 7.80604 55.1981 7.89937 55.1791 7.97404H49.4266C49.455 8.26337 49.526 8.52004 49.6397 8.74404C49.7533 8.96804 49.9001 9.15937 50.08 9.31804C50.2599 9.47671 50.4635 9.59804 50.6907 9.68204C50.918 9.76604 51.1547 9.80804 51.4009 9.80804C51.7797 9.80804 52.1348 9.71937 52.4662 9.54204C52.8071 9.35537 53.0391 9.11271 53.1622 8.81404L54.7956 9.26204C54.521 9.82204 54.0807 10.284 53.4747 10.648C52.8781 11.0027 52.1632 11.18 51.3299 11.18ZM53.2616 6.75604C53.2143 6.20537 53.0059 5.76671 52.6366 5.44004C52.2768 5.10404 51.8365 4.93604 51.3157 4.93604C51.06 4.93604 50.8186 4.98271 50.5913 5.07604C50.3735 5.16004 50.1794 5.28137 50.009 5.44004C49.8385 5.59871 49.6965 5.79004 49.5828 6.01404C49.4787 6.23804 49.4171 6.48537 49.3982 6.75604H53.2616Z" fill="#464646"/>
<path d="M59.8327 11.18C59.2362 11.18 58.6964 11.082 58.2135 10.886C57.7306 10.6807 57.3187 10.4054 56.9778 10.06C56.6369 9.71471 56.3718 9.31337 56.1824 8.85604C56.0025 8.39871 55.9125 7.91804 55.9125 7.41404C55.9125 6.89137 56.0025 6.40137 56.1824 5.94404C56.3623 5.47737 56.6227 5.07137 56.9636 4.72604C57.3045 4.37137 57.7164 4.09137 58.1993 3.88604C58.6917 3.68071 59.2409 3.57804 59.8469 3.57804C60.453 3.57804 60.9927 3.68071 61.4662 3.88604C61.9491 4.09137 62.3563 4.36671 62.6877 4.71204C63.0286 5.05737 63.2842 5.45871 63.4547 5.91604C63.6346 6.37337 63.7246 6.84937 63.7246 7.34404C63.7246 7.46537 63.7198 7.58204 63.7104 7.69404C63.7104 7.80604 63.7009 7.89937 63.6819 7.97404H57.9294C57.9578 8.26337 58.0289 8.52004 58.1425 8.74404C58.2561 8.96804 58.4029 9.15937 58.5828 9.31804C58.7627 9.47671 58.9663 9.59804 59.1936 9.68204C59.4208 9.76604 59.6576 9.80804 59.9038 9.80804C60.2825 9.80804 60.6376 9.71937 60.969 9.54204C61.3099 9.35537 61.5419 9.11271 61.665 8.81404L63.2984 9.26204C63.0238 9.82204 62.5835 10.284 61.9775 10.648C61.3809 11.0027 60.666 11.18 59.8327 11.18ZM61.7644 6.75604C61.7171 6.20537 61.5088 5.76671 61.1395 5.44004C60.7796 5.10404 60.3393 4.93604 59.8185 4.93604C59.5629 4.93604 59.3214 4.98271 59.0941 5.07604C58.8763 5.16004 58.6822 5.28137 58.5118 5.44004C58.3413 5.59871 58.1993 5.79004 58.0857 6.01404C57.9815 6.23804 57.92 6.48537 57.901 6.75604H61.7644Z" fill="#464646"/>
<path d="M69.969 11.04L67.81 7.86204L66.7874 8.85604V11.04H64.8841V0.820038H66.7874V7.02204L69.7701 3.71804H71.8013L69.0315 6.82604L72.0001 11.04H69.969Z" fill="#464646"/>
</g>
<g id="AluraGeek_2">
<path d="M4.25693 1.10004H5.98979L9.8248 11.04H7.80787L6.87042 8.56204H3.34789L2.42465 11.04H0.407715L4.25693 1.10004ZM6.51533 7.20404L5.12336 3.29804L3.67458 7.20404H6.51533Z" fill="#2A7AE4"/>
<path d="M10.7321 0.820038H12.6354V8.68804C12.6354 8.95871 12.7016 9.16871 12.8342 9.31804C12.9668 9.46737 13.1562 9.54204 13.4024 9.54204C13.516 9.54204 13.6391 9.52337 13.7717 9.48604C13.9137 9.44871 14.0463 9.40204 14.1694 9.34604L14.425 10.774C14.1694 10.8954 13.8711 10.9887 13.5302 11.054C13.1893 11.1194 12.8816 11.152 12.607 11.152C12.0104 11.152 11.5464 10.998 11.215 10.69C10.893 10.3727 10.7321 9.92471 10.7321 9.34604V0.820038Z" fill="#2A7AE4"/>
<path d="M17.5269 11.18C16.7599 11.18 16.1775 10.9374 15.7798 10.452C15.3821 9.96671 15.1833 9.24804 15.1833 8.29604V3.70404H17.0866V7.89004C17.0866 9.01937 17.4985 9.58404 18.3223 9.58404C18.6916 9.58404 19.0467 9.47671 19.3876 9.26204C19.7379 9.03804 20.022 8.70204 20.2398 8.25404V3.70404H22.1431V8.88404C22.1431 9.08004 22.1762 9.22004 22.2425 9.30404C22.3183 9.38804 22.4367 9.43471 22.5976 9.44404V11.04C22.4082 11.0774 22.2473 11.1007 22.1147 11.11C21.9916 11.1194 21.878 11.124 21.7738 11.124C21.4329 11.124 21.1536 11.0494 20.9358 10.9C20.7275 10.7414 20.6044 10.5267 20.5665 10.256L20.5239 9.66804C20.1925 10.172 19.7663 10.55 19.2455 10.802C18.7247 11.054 18.1519 11.18 17.5269 11.18Z" fill="#2A7AE4"/>
<path d="M28.4661 5.32804C27.8885 5.33737 27.3724 5.44937 26.9179 5.66404C26.4634 5.86937 26.1367 6.18204 25.9378 6.60204V11.04H24.0345V3.70404H25.7816V5.27204C25.9142 5.02004 26.0704 4.79604 26.2503 4.60004C26.4302 4.39471 26.6244 4.21737 26.8327 4.06804C27.041 3.91871 27.2493 3.80671 27.4576 3.73204C27.6754 3.64804 27.8837 3.60604 28.0826 3.60604C28.1868 3.60604 28.2625 3.60604 28.3099 3.60604C28.3667 3.60604 28.4188 3.61071 28.4661 3.62004V5.32804Z" fill="#2A7AE4"/>
<path d="M31.4614 11.18C31.1016 11.18 30.7654 11.124 30.453 11.012C30.1405 10.8907 29.8706 10.7274 29.6433 10.522C29.4161 10.3074 29.2362 10.06 29.1036 9.78004C28.9805 9.50004 28.919 9.19204 28.919 8.85604C28.919 8.51071 28.9947 8.19337 29.1462 7.90404C29.3072 7.60537 29.525 7.35337 29.7996 7.14804C30.0837 6.94271 30.4198 6.78404 30.8081 6.67204C31.1963 6.55071 31.6224 6.49004 32.0864 6.49004C32.4178 6.49004 32.7398 6.51804 33.0522 6.57404C33.3742 6.63004 33.6583 6.70937 33.9045 6.81204V6.39204C33.9045 5.90671 33.7624 5.53337 33.4784 5.27204C33.2038 5.01071 32.7918 4.88004 32.2426 4.88004C31.8449 4.88004 31.4567 4.95004 31.0779 5.09004C30.6992 5.23004 30.3109 5.43537 29.9132 5.70604L29.3309 4.51604C30.2873 3.89071 31.3194 3.57804 32.4273 3.57804C33.4973 3.57804 34.3258 3.83937 34.9129 4.36204C35.5095 4.87537 35.8078 5.62204 35.8078 6.60204V8.88404C35.8078 9.08004 35.8409 9.22004 35.9072 9.30404C35.983 9.38804 36.1013 9.43471 36.2623 9.44404V11.04C35.9403 11.1054 35.661 11.138 35.4243 11.138C35.0644 11.138 34.7851 11.0587 34.5863 10.9C34.3969 10.7414 34.2785 10.5314 34.2312 10.27L34.1885 9.86404C33.8571 10.2934 33.4547 10.62 32.9812 10.844C32.5078 11.068 32.0012 11.18 31.4614 11.18ZM32.0012 9.80804C32.3231 9.80804 32.6261 9.75204 32.9102 9.64004C33.2038 9.52804 33.431 9.37871 33.592 9.19204C33.8003 9.03337 33.9045 8.85604 33.9045 8.66004V7.82004C33.6772 7.73604 33.431 7.67071 33.1659 7.62404C32.9007 7.56804 32.6451 7.54004 32.3989 7.54004C31.9065 7.54004 31.504 7.65204 31.1916 7.87604C30.8791 8.09071 30.7228 8.36604 30.7228 8.70204C30.7228 9.01937 30.8459 9.28537 31.0921 9.50004C31.3383 9.70537 31.6413 9.80804 32.0012 9.80804Z" fill="#2A7AE4"/>
</g>
</g>
</svg>
